<?xml version="1.0" encoding="utf-8"?>
<svg width="28px" height="19px" viewBox="0 0 28 19" version="1.1" xmlns:xlink="http://www.w3.org/1999/xlink" xmlns="http://www.w3.org/2000/svg">
  <path d="M1378.6 48L1353.4 48C1352.63 48 1352 48.672 1352 49.5C1352 50.328 1352.63 51 1353.4 51L1378.6 51C1379.37 51 1380 50.328 1380 49.5C1380 48.672 1379.37 48 1378.6 48M1378.6 56L1353.4 56C1352.63 56 1352 56.672 1352 57.5C1352 58.328 1352.63 59 1353.4 59L1378.6 59C1379.37 59 1380 58.328 1380 57.5C1380 56.672 1379.37 56 1378.6 56M1353.4 43L1378.6 43C1379.37 43 1380 42.328 1380 41.5C1380 40.672 1379.37 40 1378.6 40L1353.4 40C1352.63 40 1352 40.672 1352 41.5C1352 42.328 1352.63 43 1353.4 43" id="Menu-Icon" fill="#FFFFFF" fill-rule="evenodd" stroke="none" />
</svg>